<svg xmlns="http://www.w3.org/2000/svg" xmlns:xlink="http://www.w3.org/1999/xlink" width="24" height="24" viewBox="0 0 24 24">
  <defs>
    <clipPath id="clip-path">
      <rect id="Rectangle_2250" data-name="Rectangle 2250" width="24" height="24" transform="translate(16 585)" fill="#fff" stroke="#707070" stroke-width="1"/>
    </clipPath>
  </defs>
  <g id="Mask_Group_54" data-name="Mask Group 54" transform="translate(-16 -585)" clip-path="url(#clip-path)">
    <g id="maps-and-flags" transform="translate(-49.951 587.239)">
      <g id="Group_4066" data-name="Group 4066" transform="translate(70.573)">
        <path id="Path_2926" data-name="Path 2926" d="M77.643,0a7.078,7.078,0,0,0-7.07,7.07c0,4.838,6.327,11.941,6.6,12.241a.637.637,0,0,0,.947,0c.269-.3,6.6-7.4,6.6-12.241A7.078,7.078,0,0,0,77.643,0Zm0,10.627A3.557,3.557,0,1,1,81.2,7.07,3.561,3.561,0,0,1,77.643,10.627Z" transform="translate(-70.573 0)" fill="#508ff4"/>
      </g>
    </g>
  </g>
</svg>
